<svg width="59" height="24" viewBox="0 0 59 24" fill="none" xmlns="http://www.w3.org/2000/svg">
<g id="toky">
<path id="Vector" d="M3.02362 5.48846L3.73187 2.57172C3.94496 1.69965 4.87615 0.995099 5.81104 1.00003C6.74716 1.00495 7.33346 1.71566 7.1216 2.58896L6.41336 5.50571L12.0596 5.53404C12.9884 5.53897 13.571 6.24475 13.3603 7.11189C13.1497 7.97903 12.2259 8.67742 11.2959 8.6725L5.64968 8.64417L4.5054 13.3519C4.29847 14.2042 4.86876 14.9248 5.80611 14.9297L11.4524 14.958L10.6949 18.0743L5.04859 18.046C2.25872 18.0324 0.493642 15.8917 1.12675 13.2903L2.25995 8.62816L3.02239 5.4897L3.02362 5.48846Z" fill="white" fill-opacity="0.87"/>
<path id="Vector_2" d="M27.8838 10.3034L27.1152 13.464C26.4833 16.0642 23.7168 18.1372 20.9294 18.1237L17.8119 18.1076C15.0232 18.0941 13.2705 15.9977 13.9023 13.3975L14.6709 10.2369C15.2979 7.65884 18.0693 5.56366 20.8567 5.57721L23.9742 5.59323C26.7629 5.60678 28.5095 7.72536 27.8838 10.3034ZM23.2118 8.73168L20.0943 8.71567C19.1569 8.71075 18.243 9.40175 18.036 10.2541L17.2674 13.4147C17.0605 14.2671 17.6308 14.9877 18.5682 14.9926L21.6857 15.0086C22.5996 15.0135 23.5431 14.3004 23.7501 13.448L24.5187 10.2874C24.7256 9.435 24.1257 8.73661 23.2118 8.73168Z" fill="white" fill-opacity="0.87"/>
<path id="Vector_3" d="M56.5465 5.75707H56.5945C57.5171 5.762 58.096 6.46285 57.8866 7.32384L55.2199 18.2961C54.588 20.8975 51.7883 23.0149 48.9984 23.0001L40.8579 22.9595L41.6265 19.7988L49.767 19.8395C50.7044 19.8444 51.6183 19.1534 51.8314 18.2789L47.0314 18.2542C44.2563 18.2407 42.5171 16.132 43.1465 13.5441L44.6751 7.25609C44.8844 6.39511 45.8021 5.70164 46.7247 5.70657C47.6472 5.7115 48.2261 6.41235 48.0167 7.27333L46.4882 13.5613C46.2788 14.4248 46.8638 15.1343 47.7889 15.1392L52.5889 15.1638L54.4981 7.30659C54.7075 6.44561 55.6252 5.75214 56.5477 5.75707H56.5465Z" fill="white" fill-opacity="0.87"/>
<path id="Vector_4" d="M28.0427 18.1706L31.7995 2.71111C32.0114 1.83904 32.9413 1.13572 33.8762 1.14065C34.8111 1.14558 35.3974 1.85629 35.1856 2.72836L33.1544 11.0857L40.0706 6.03803C40.402 5.79537 40.7986 5.66235 41.1755 5.66358C42.4737 5.66974 42.7755 7.13304 41.6534 7.99155L36.3902 12.0218L41.7877 18.2383L37.3436 18.2162L32.6457 13.1809L31.4288 18.1854L28.0415 18.1681L28.0427 18.1706Z" fill="white" fill-opacity="0.87"/>
</g>
</svg>
